<svg version="1.1" id="Layer_1" xmlns="http://www.w3.org/2000/svg" xmlns:xlink="http://www.w3.org/1999/xlink" x="0px" y="0px"
	 width="100%" viewBox="0 0 420 420" enable-background="new 0 0 420 420" xml:space="preserve">
<path fill="#010101" opacity="1.000000" stroke="none" 
	d="
M1.000000,144.000000 
	C1.000000,96.014130 1.000000,48.528255 1.000000,1.021192 
	C140.944229,1.021192 280.888458,1.021192 420.916351,1.021192 
	C420.916351,140.902542 420.916351,280.805145 420.916351,420.853882 
	C281.000122,420.853882 141.000076,420.853882 1.000000,420.853882 
	C1.000000,328.778198 1.000000,236.639099 1.000000,144.000000 
M95.504036,195.426605 
	C81.742249,209.614731 67.980461,223.802856 54.218678,237.990982 
	C53.694149,237.611160 53.169617,237.231339 52.645088,236.851501 
	C48.886044,212.726501 50.200954,188.869019 57.157833,165.370346 
	C64.135979,141.799820 76.176781,120.989189 92.594620,102.606842 
	C91.790253,102.180351 91.525627,101.917503 91.260414,101.916908 
	C73.264984,101.876404 55.268726,101.783844 37.275440,101.972290 
	C35.810543,101.987617 33.793171,103.612999 32.994045,105.031807 
	C-4.999213,172.487000 -6.213551,240.670990 28.565052,309.829773 
	C32.666142,317.984924 37.413795,322.031342 46.376125,320.109619 
	C48.473129,319.659943 50.827621,318.933014 52.348862,317.548340 
	C57.271023,313.068085 61.886581,308.248169 66.572762,303.512085 
	C76.140671,293.842285 85.677666,284.141876 95.403381,274.275543 
	C110.076370,288.940002 124.146652,303.107452 138.394897,317.093628 
	C139.973831,318.643494 142.555786,319.990082 144.693527,320.021912 
	C160.853729,320.262482 177.019196,320.158325 193.182968,320.134308 
	C194.429947,320.132477 195.676605,319.920441 196.757965,319.821259 
	C196.757965,246.989792 196.757965,174.573212 196.757965,102.122620 
	C178.078583,102.122620 159.684174,102.122620 140.749283,102.122620 
	C140.749283,148.053680 140.749283,193.689163 140.749283,239.324646 
	C140.372223,239.518997 139.995163,239.713348 139.618103,239.907700 
	C125.149208,225.181274 110.680313,210.454849 95.504036,195.426605 
M281.019897,247.549316 
	C281.019897,244.786285 281.019897,242.023270 281.019897,239.370865 
	C310.654083,239.370865 339.678314,239.370865 368.899628,239.370865 
	C363.245422,270.079346 349.888733,296.571320 328.669403,320.164276 
	C348.159607,320.164276 366.600342,320.240234 385.037445,320.015991 
	C386.468933,319.998627 388.397064,318.166779 389.217621,316.690826 
	C428.439087,246.143585 428.419067,175.586960 389.189636,105.004684 
	C387.709564,102.341690 386.018829,101.770546 383.296112,101.788315 
	C368.297485,101.886215 353.297913,101.835815 338.298645,101.836250 
	C335.411438,101.836327 332.524200,101.836258 328.670349,101.836258 
	C350.048859,125.612602 363.279297,152.177689 368.936371,182.761597 
	C339.567108,182.761597 310.485321,182.761597 280.824219,182.761597 
	C280.824219,155.666351 280.824219,128.800461 280.824219,102.047287 
	C261.966248,102.047287 243.688461,102.047287 225.274597,102.047287 
	C225.274597,174.828766 225.274597,247.382401 225.274597,319.824280 
	C243.979843,319.824280 262.373138,319.824280 281.020966,319.824280 
	C281.020966,295.830353 281.020966,272.184753 281.019897,247.549316 
M89.500946,348.084900 
	C78.588333,348.084900 67.675713,348.084900 56.293037,348.084900 
	C134.682663,441.101715 286.524414,441.715729 365.395660,348.469940 
	C365.126221,348.325348 364.861267,348.058807 364.596039,348.058563 
	C341.946747,348.036713 319.297302,348.006927 296.648346,348.094971 
	C295.093903,348.101013 293.407593,348.752228 292.009888,349.518158 
	C238.235428,378.985291 184.436462,379.078217 130.526230,349.867157 
	C128.589417,348.817688 126.179352,348.189667 123.977951,348.156555 
	C112.821182,347.988739 101.660484,348.082672 89.500946,348.084900 
M109.617302,30.126886 
	C89.482124,41.636971 71.551453,55.813187 55.641083,73.974968 
	C74.262604,73.974968 91.748810,73.697548 109.220863,74.075233 
	C120.349541,74.315788 130.212662,72.189537 140.600311,67.229088 
	C191.257126,43.038750 241.606506,44.895885 290.967773,71.871964 
	C293.170532,73.075783 295.922180,73.809746 298.428284,73.837029 
	C314.420197,74.011101 330.414917,73.925514 346.408722,73.925430 
	C352.665375,73.925392 358.921997,73.925423 365.571960,73.925423 
	C313.340546,10.316514 205.295441,-22.779913 109.617302,30.126886 
z"/>
<path fill="#F9F9F9" opacity="1.000000" stroke="none" 
	d="
M95.857727,195.577515 
	C110.680313,210.454849 125.149208,225.181274 139.618103,239.907700 
	C139.995163,239.713348 140.372223,239.518997 140.749283,239.324646 
	C140.749283,193.689163 140.749283,148.053680 140.749283,102.122620 
	C159.684174,102.122620 178.078583,102.122620 196.757965,102.122620 
	C196.757965,174.573212 196.757965,246.989792 196.757965,319.821259 
	C195.676605,319.920441 194.429947,320.132477 193.182968,320.134308 
	C177.019196,320.158325 160.853729,320.262482 144.693527,320.021912 
	C142.555786,319.990082 139.973831,318.643494 138.394897,317.093628 
	C124.146652,303.107452 110.076370,288.940002 95.403381,274.275543 
	C85.677666,284.141876 76.140671,293.842285 66.572762,303.512085 
	C61.886581,308.248169 57.271023,313.068085 52.348862,317.548340 
	C50.827621,318.933014 48.473129,319.659943 46.376125,320.109619 
	C37.413795,322.031342 32.666142,317.984924 28.565052,309.829773 
	C-6.213551,240.670990 -4.999213,172.487000 32.994045,105.031807 
	C33.793171,103.612999 35.810543,101.987617 37.275440,101.972290 
	C55.268726,101.783844 73.264984,101.876404 91.260414,101.916908 
	C91.525627,101.917503 91.790253,102.180351 92.594620,102.606842 
	C76.176781,120.989189 64.135979,141.799820 57.157833,165.370346 
	C50.200954,188.869019 48.886044,212.726501 52.645088,236.851501 
	C53.169617,237.231339 53.694149,237.611160 54.218678,237.990982 
	C67.980461,223.802856 81.742249,209.614731 95.857727,195.577515 
M100.935875,259.699890 
	C101.606018,260.140656 102.276154,260.581421 103.633705,261.051758 
	C117.413948,274.821442 131.179550,288.605865 145.001816,302.333221 
	C146.123718,303.447418 147.618622,304.929932 148.965363,304.956299 
	C159.875458,305.169830 170.791550,305.076202 181.645752,305.076202 
	C181.645752,242.031784 181.645752,179.647675 181.645752,117.094963 
	C173.072144,117.094963 164.816879,117.094963 155.896698,117.094963 
	C155.896698,170.100510 155.896698,222.880600 155.896698,275.660706 
	C155.411652,275.922089 154.926605,276.183441 154.441559,276.444794 
	C134.795624,256.625305 115.149704,236.805801 95.174423,216.654022 
	C77.904617,234.003326 60.657612,251.329727 43.355762,268.711212 
	C29.897448,215.617065 32.643749,164.726456 62.788212,116.899849 
	C57.046658,116.899849 52.369305,117.152733 47.734978,116.815056 
	C44.387295,116.571129 42.769604,117.830956 41.265697,120.721306 
	C19.168480,163.189804 13.434533,207.783722 23.783216,254.448807 
	C27.724909,272.222992 34.315823,289.013031 43.939632,305.923767 
	C45.556374,303.905792 46.664757,302.217804 48.064518,300.822021 
	C63.028713,285.900482 78.039001,271.025116 93.563377,256.604523 
	C95.061493,256.350098 96.559601,256.095642 98.657913,256.083801 
	C99.438263,257.056702 100.218605,258.029602 100.935875,259.699890 
z"/>
<path fill="#FAFAFA" opacity="1.000000" stroke="none" 
	d="
M281.020447,248.044235 
	C281.020966,272.184753 281.020966,295.830353 281.020966,319.824280 
	C262.373138,319.824280 243.979843,319.824280 225.274597,319.824280 
	C225.274597,247.382401 225.274597,174.828766 225.274597,102.047287 
	C243.688461,102.047287 261.966248,102.047287 280.824219,102.047287 
	C280.824219,128.800461 280.824219,155.666351 280.824219,182.761597 
	C310.485321,182.761597 339.567108,182.761597 368.936371,182.761597 
	C363.279297,152.177689 350.048859,125.612602 328.670349,101.836258 
	C332.524200,101.836258 335.411438,101.836327 338.298645,101.836250 
	C353.297913,101.835815 368.297485,101.886215 383.296112,101.788315 
	C386.018829,101.770546 387.709564,102.341690 389.189636,105.004684 
	C428.419067,175.586960 428.439087,246.143585 389.217621,316.690826 
	C388.397064,318.166779 386.468933,319.998627 385.037445,320.015991 
	C366.600342,320.240234 348.159607,320.164276 328.669403,320.164276 
	C349.888733,296.571320 363.245422,270.079346 368.899628,239.370865 
	C339.678314,239.370865 310.654083,239.370865 281.019897,239.370865 
	C281.019897,242.023270 281.019897,244.786285 281.020447,248.044235 
M377.144653,154.376785 
	C380.676270,168.710434 384.207886,183.044083 387.855560,197.848770 
	C346.581970,197.848770 306.503601,197.848770 265.811005,197.848770 
	C265.811005,170.755814 265.811005,143.894470 265.811005,117.170074 
	C256.930084,117.170074 248.666565,117.170074 240.243835,117.170074 
	C240.243835,179.853989 240.243835,242.247925 240.243835,304.818176 
	C248.869736,304.818176 257.248383,304.818176 266.069092,304.818176 
	C266.069092,277.778320 266.069092,251.043671 266.069092,224.212677 
	C306.579956,224.212677 346.645752,224.212677 387.708221,224.212677 
	C384.315399,238.419357 381.947876,252.450989 377.502960,265.790405 
	C373.027344,279.221863 366.486786,291.965179 360.802979,305.121277 
	C365.025696,305.121277 369.823517,304.916290 374.593201,305.193909 
	C377.729950,305.376465 379.266754,304.171936 380.689758,301.454803 
	C394.592041,274.909180 402.253693,246.734879 403.077057,216.760590 
	C404.015625,182.591736 396.585754,150.362656 380.327087,120.244514 
	C379.619781,118.934288 378.280792,117.097015 377.147461,117.031219 
	C371.465179,116.701332 365.753326,116.880066 360.605133,116.880066 
	C366.190002,129.403458 371.585968,141.503235 377.144653,154.376785 
z"/>
<path fill="#F8F8F8" opacity="1.000000" stroke="none" 
	d="
M90.001053,348.084900 
	C101.660484,348.082672 112.821182,347.988739 123.977951,348.156555 
	C126.179352,348.189667 128.589417,348.817688 130.526230,349.867157 
	C184.436462,379.078217 238.235428,378.985291 292.009888,349.518158 
	C293.407593,348.752228 295.093903,348.101013 296.648346,348.094971 
	C319.297302,348.006927 341.946747,348.036713 364.596039,348.058563 
	C364.861267,348.058807 365.126221,348.325348 365.395660,348.469940 
	C286.524414,441.715729 134.682663,441.101715 56.293037,348.084900 
	C67.675713,348.084900 78.588333,348.084900 90.001053,348.084900 
M191.273514,402.180145 
	C245.698868,408.179138 298.698547,388.036652 327.264984,363.120514 
	C322.891968,363.120514 318.739960,363.410767 314.641968,363.063416 
	C304.415314,362.196533 295.506561,365.130707 286.127899,369.438721 
	C232.397385,394.119507 179.063309,392.279175 126.600700,365.012207 
	C125.288231,364.330017 123.932556,363.227539 122.581642,363.204010 
	C113.372406,363.043549 104.159042,363.119965 93.590446,363.119965 
	C123.159668,385.508911 155.031158,398.127350 191.273514,402.180145 
z"/>
<path fill="#F8F8F8" opacity="1.000000" stroke="none" 
	d="
M109.953171,29.979404 
	C205.295441,-22.779913 313.340546,10.316514 365.571960,73.925423 
	C358.921997,73.925423 352.665375,73.925392 346.408722,73.925430 
	C330.414917,73.925514 314.420197,74.011101 298.428284,73.837029 
	C295.922180,73.809746 293.170532,73.075783 290.967773,71.871964 
	C241.606506,44.895885 191.257126,43.038750 140.600311,67.229088 
	C130.212662,72.189537 120.349541,74.315788 109.220863,74.075233 
	C91.748810,73.697548 74.262604,73.974968 55.641083,73.974968 
	C71.551453,55.813187 89.482124,41.636971 109.953171,29.979404 
M275.682343,47.801865 
	C280.229431,49.844810 285.178070,51.293293 289.248016,54.042564 
	C301.286011,62.174301 314.455353,57.595135 328.444733,59.159756 
	C255.274307,2.142020 154.925156,9.479158 94.481895,58.936493 
	C104.190247,58.936493 113.267082,58.979458 122.342339,58.879112 
	C123.410072,58.867306 124.518402,58.159863 125.525108,57.620377 
	C173.819580,31.739466 223.652039,28.604317 275.682343,47.801865 
z"/>
<path fill="#030303" opacity="1.000000" stroke="none" 
	d="
M93.036652,256.137115 
	C78.039001,271.025116 63.028713,285.900482 48.064518,300.822021 
	C46.664757,302.217804 45.556374,303.905792 43.939632,305.923767 
	C34.315823,289.013031 27.724909,272.222992 23.783216,254.448807 
	C13.434533,207.783722 19.168480,163.189804 41.265697,120.721306 
	C42.769604,117.830956 44.387295,116.571129 47.734978,116.815056 
	C52.369305,117.152733 57.046658,116.899849 62.788212,116.899849 
	C32.643749,164.726456 29.897448,215.617065 43.355762,268.711212 
	C60.657612,251.329727 77.904617,234.003326 95.174423,216.654022 
	C115.149704,236.805801 134.795624,256.625305 154.441559,276.444794 
	C154.926605,276.183441 155.411652,275.922089 155.896698,275.660706 
	C155.896698,222.880600 155.896698,170.100510 155.896698,117.094963 
	C164.816879,117.094963 173.072144,117.094963 181.645752,117.094963 
	C181.645752,179.647675 181.645752,242.031784 181.645752,305.076202 
	C170.791550,305.076202 159.875458,305.169830 148.965363,304.956299 
	C147.618622,304.929932 146.123718,303.447418 145.001816,302.333221 
	C131.179550,288.605865 117.413948,274.821442 103.057365,260.873474 
	C101.987000,260.130951 101.492973,259.566742 100.998947,259.002502 
	C100.218605,258.029602 99.438263,257.056702 98.239136,255.622192 
	C95.534302,252.098694 94.325211,254.312515 93.036652,256.137115 
z"/>
<path fill="#E3E4E4" opacity="1.000000" stroke="none" 
	d="
M93.300018,256.370819 
	C94.325211,254.312515 95.534302,252.098694 97.939041,255.500885 
	C96.559601,256.095642 95.061493,256.350098 93.300018,256.370819 
z"/>
<path fill="#E3E4E4" opacity="1.000000" stroke="none" 
	d="
M100.967415,259.351196 
	C101.492973,259.566742 101.987000,260.130951 102.713661,260.858704 
	C102.276154,260.581421 101.606018,260.140656 100.967415,259.351196 
z"/>
<path fill="#030303" opacity="1.000000" stroke="none" 
	d="
M377.063293,153.989899 
	C371.585968,141.503235 366.190002,129.403458 360.605133,116.880066 
	C365.753326,116.880066 371.465179,116.701332 377.147461,117.031219 
	C378.280792,117.097015 379.619781,118.934288 380.327087,120.244514 
	C396.585754,150.362656 404.015625,182.591736 403.077057,216.760590 
	C402.253693,246.734879 394.592041,274.909180 380.689758,301.454803 
	C379.266754,304.171936 377.729950,305.376465 374.593201,305.193909 
	C369.823517,304.916290 365.025696,305.121277 360.802979,305.121277 
	C366.486786,291.965179 373.027344,279.221863 377.502960,265.790405 
	C381.947876,252.450989 384.315399,238.419357 387.708221,224.212677 
	C346.645752,224.212677 306.579956,224.212677 266.069092,224.212677 
	C266.069092,251.043671 266.069092,277.778320 266.069092,304.818176 
	C257.248383,304.818176 248.869736,304.818176 240.243835,304.818176 
	C240.243835,242.247925 240.243835,179.853989 240.243835,117.170074 
	C248.666565,117.170074 256.930084,117.170074 265.811005,117.170074 
	C265.811005,143.894470 265.811005,170.755814 265.811005,197.848770 
	C306.503601,197.848770 346.581970,197.848770 387.855560,197.848770 
	C384.207886,183.044083 380.676270,168.710434 377.063293,153.989899 
z"/>
<path fill="#060606" opacity="1.000000" stroke="none" 
	d="
M190.822952,402.146851 
	C155.031158,398.127350 123.159668,385.508911 93.590446,363.119965 
	C104.159042,363.119965 113.372406,363.043549 122.581642,363.204010 
	C123.932556,363.227539 125.288231,364.330017 126.600700,365.012207 
	C179.063309,392.279175 232.397385,394.119507 286.127899,369.438721 
	C295.506561,365.130707 304.415314,362.196533 314.641968,363.063416 
	C318.739960,363.410767 322.891968,363.120514 327.264984,363.120514 
	C298.698547,388.036652 245.698868,408.179138 190.822952,402.146851 
z"/>
<path fill="#060606" opacity="1.000000" stroke="none" 
	d="
M275.331726,47.639004 
	C223.652039,28.604317 173.819580,31.739466 125.525108,57.620377 
	C124.518402,58.159863 123.410072,58.867306 122.342339,58.879112 
	C113.267082,58.979458 104.190247,58.936493 94.481895,58.936493 
	C154.925156,9.479158 255.274307,2.142020 328.444733,59.159756 
	C314.455353,57.595135 301.286011,62.174301 289.248016,54.042564 
	C285.178070,51.293293 280.229431,49.844810 275.331726,47.639004 
z"/>
</svg>